<?xml version="1.0" encoding="UTF-8" standalone="no"?>
<!DOCTYPE svg PUBLIC "-//W3C//DTD SVG 1.1//EN"
 "http://www.w3.org/Graphics/SVG/1.1/DTD/svg11.dtd">
<!-- Generated by graphviz version 2.43.0 (0)
 -->
<!-- Title: dependency&#45;cruiser output Pages: 1 -->
<svg width="921pt" height="532pt"
 viewBox="0.00 0.00 921.00 532.00" xmlns="http://www.w3.org/2000/svg" xmlns:xlink="http://www.w3.org/1999/xlink">
<g id="graph0" class="graph" transform="scale(1 1) rotate(0) translate(4 528)">
<title>dependency&#45;cruiser output</title>
<polygon fill="white" stroke="transparent" points="-4,4 -4,-528 917,-528 917,4 -4,4"/>
<g id="clust1" class="cluster">
<title>cluster_src</title>
<path fill="#ffffff" stroke="black" stroke-width="2" d="M20,-8C20,-8 893,-8 893,-8 899,-8 905,-14 905,-20 905,-20 905,-504 905,-504 905,-510 899,-516 893,-516 893,-516 20,-516 20,-516 14,-516 8,-510 8,-504 8,-504 8,-20 8,-20 8,-14 14,-8 20,-8"/>
<text text-anchor="middle" x="456.5" y="-504.8" font-family="Helvetica,sans-Serif" font-weight="bold" font-size="9.00">src</text>
</g>
<g id="clust2" class="cluster">
<title>cluster_src/actions</title>
<path fill="#ffffff" stroke="black" stroke-width="2" d="M338,-290C338,-290 384,-290 384,-290 390,-290 396,-296 396,-302 396,-302 396,-330 396,-330 396,-336 390,-342 384,-342 384,-342 338,-342 338,-342 332,-342 326,-336 326,-330 326,-330 326,-302 326,-302 326,-296 332,-290 338,-290"/>
<text text-anchor="middle" x="361" y="-330.8" font-family="Helvetica,sans-Serif" font-weight="bold" font-size="9.00">actions</text>
</g>
<g id="clust3" class="cluster">
<title>cluster_src/components</title>
<path fill="#ffffff" stroke="black" stroke-width="2" d="M104.5,-18C104.5,-18 408,-18 408,-18 414,-18 420,-24 420,-30 420,-30 420,-242 420,-242 420,-248 414,-254 408,-254 408,-254 104.5,-254 104.5,-254 98.5,-254 92.5,-248 92.5,-242 92.5,-242 92.5,-30 92.5,-30 92.5,-24 98.5,-18 104.5,-18"/>
<text text-anchor="middle" x="256.25" y="-242.8" font-family="Helvetica,sans-Serif" font-weight="bold" font-size="9.00">components</text>
</g>
<g id="clust4" class="cluster">
<title>cluster_src/components/_layout</title>
<path fill="#ffffff" stroke="black" stroke-width="2" d="M322,-26C322,-26 400,-26 400,-26 406,-26 412,-32 412,-38 412,-38 412,-216 412,-216 412,-222 406,-228 400,-228 400,-228 322,-228 322,-228 316,-228 310,-222 310,-216 310,-216 310,-38 310,-38 310,-32 316,-26 322,-26"/>
<text text-anchor="middle" x="361" y="-216.8" font-family="Helvetica,sans-Serif" font-weight="bold" font-size="9.00">_layout</text>
</g>
<g id="clust5" class="cluster">
<title>cluster_src/components/controls</title>
<path fill="#ffffff" stroke="black" stroke-width="2" d="M218,-116C218,-116 264,-116 264,-116 270,-116 276,-122 276,-128 276,-128 276,-156 276,-156 276,-162 270,-168 264,-168 264,-168 218,-168 218,-168 212,-168 206,-162 206,-156 206,-156 206,-128 206,-128 206,-122 212,-116 218,-116"/>
<text text-anchor="middle" x="241" y="-156.8" font-family="Helvetica,sans-Serif" font-weight="bold" font-size="9.00">controls</text>
</g>
<g id="clust6" class="cluster">
<title>cluster_src/components/world</title>
<path fill="#ffffff" stroke="black" stroke-width="2" d="M218,-176C218,-176 264,-176 264,-176 270,-176 276,-182 276,-188 276,-188 276,-216 276,-216 276,-222 270,-228 264,-228 264,-228 218,-228 218,-228 212,-228 206,-222 206,-216 206,-216 206,-188 206,-188 206,-182 212,-176 218,-176"/>
<text text-anchor="middle" x="241" y="-216.8" font-family="Helvetica,sans-Serif" font-weight="bold" font-size="9.00">world</text>
</g>
<g id="clust7" class="cluster">
<title>cluster_src/helpers</title>
<path fill="#ffffff" stroke="black" stroke-width="2" d="M440,-71C440,-71 885,-71 885,-71 891,-71 897,-77 897,-83 897,-83 897,-171 897,-171 897,-177 891,-183 885,-183 885,-183 440,-183 440,-183 434,-183 428,-177 428,-171 428,-171 428,-83 428,-83 428,-77 434,-71 440,-71"/>
<text text-anchor="middle" x="662.5" y="-171.8" font-family="Helvetica,sans-Serif" font-weight="bold" font-size="9.00">helpers</text>
</g>
<g id="clust8" class="cluster">
<title>cluster_src/reducers</title>
<path fill="#ffffff" stroke="black" stroke-width="2" d="M104.5,-318C104.5,-318 264,-318 264,-318 270,-318 276,-324 276,-330 276,-330 276,-358 276,-358 276,-364 270,-370 264,-370 264,-370 104.5,-370 104.5,-370 98.5,-370 92.5,-364 92.5,-358 92.5,-358 92.5,-330 92.5,-330 92.5,-324 98.5,-318 104.5,-318"/>
<text text-anchor="middle" x="184.25" y="-358.8" font-family="Helvetica,sans-Serif" font-weight="bold" font-size="9.00">reducers</text>
</g>
<g id="clust9" class="cluster">
<title>cluster_src/testFiles</title>
<path fill="#ffffff" stroke="black" stroke-width="2" d="M192,-378C192,-378 290,-378 290,-378 296,-378 302,-384 302,-390 302,-390 302,-478 302,-478 302,-484 296,-490 290,-490 290,-490 192,-490 192,-490 186,-490 180,-484 180,-478 180,-478 180,-390 180,-390 180,-384 186,-378 192,-378"/>
<text text-anchor="middle" x="241" y="-478.8" font-family="Helvetica,sans-Serif" font-weight="bold" font-size="9.00">testFiles</text>
</g>
<!-- src/actions/index.js -->
<g id="node1" class="node">
<title>src/actions/index.js</title>
<g id="a_node1"><a xlink:href="src/actions/index.js" xlink:title="index.js">
<path fill="#ffffcc" stroke="black" d="M382,-316C382,-316 340,-316 340,-316 337,-316 334,-313 334,-310 334,-310 334,-304 334,-304 334,-301 337,-298 340,-298 340,-298 382,-298 382,-298 385,-298 388,-301 388,-304 388,-304 388,-310 388,-310 388,-313 385,-316 382,-316"/>
<text text-anchor="start" x="343.5" y="-304.8" font-family="Helvetica,sans-Serif" font-size="9.00">index.js</text>
</a>
</g>
</g>
<!-- src/components/App.css -->
<g id="node2" class="node">
<title>src/components/App.css</title>
<g id="a_node2"><a xlink:href="src/components/App.css" xlink:title="App.css">
<path fill="#ffffcc" stroke="black" d="M262,-108C262,-108 220,-108 220,-108 217,-108 214,-105 214,-102 214,-102 214,-96 214,-96 214,-93 217,-90 220,-90 220,-90 262,-90 262,-90 265,-90 268,-93 268,-96 268,-96 268,-102 268,-102 268,-105 265,-108 262,-108"/>
<text text-anchor="start" x="223" y="-96.8" font-family="Helvetica,sans-Serif" font-size="9.00">App.css</text>
</a>
</g>
</g>
<!-- src/components/App.js -->
<g id="node3" class="node">
<title>src/components/App.js</title>
<g id="a_node3"><a xlink:href="src/components/App.js" xlink:title="App.js">
<path fill="#ffffcc" stroke="black" d="M148.5,-142C148.5,-142 106.5,-142 106.5,-142 103.5,-142 100.5,-139 100.5,-136 100.5,-136 100.5,-130 100.5,-130 100.5,-127 103.5,-124 106.5,-124 106.5,-124 148.5,-124 148.5,-124 151.5,-124 154.5,-127 154.5,-130 154.5,-130 154.5,-136 154.5,-136 154.5,-139 151.5,-142 148.5,-142"/>
<text text-anchor="start" x="113.5" y="-130.8" font-family="Helvetica,sans-Serif" font-size="9.00">App.js</text>
</a>
</g>
</g>
<!-- src/components/App.js&#45;&gt;src/components/App.css -->
<g id="edge2" class="edge">
<title>src/components/App.js&#45;&gt;src/components/App.css</title>
<path fill="none" stroke="#000000" stroke-width="2" stroke-opacity="0.200000" d="M149.81,-123.95C158.99,-120.25 169.92,-116.12 180,-113 188.97,-110.23 198.84,-107.71 207.94,-105.6"/>
<polygon fill="#000000" fill-opacity="0.200000" stroke="#000000" stroke-width="2" stroke-opacity="0.200000" points="208.41,-107.65 213.8,-104.27 207.48,-103.55 208.41,-107.65"/>
</g>
<!-- src/helpers/createWorld.js -->
<g id="node4" class="node">
<title>src/helpers/createWorld.js</title>
<g id="a_node4"><a xlink:href="src/helpers/createWorld.js" xlink:title="createWorld.js">
<path fill="#ffffcc" stroke="black" d="M516.5,-97C516.5,-97 448.5,-97 448.5,-97 445.5,-97 442.5,-94 442.5,-91 442.5,-91 442.5,-85 442.5,-85 442.5,-82 445.5,-79 448.5,-79 448.5,-79 516.5,-79 516.5,-79 519.5,-79 522.5,-82 522.5,-85 522.5,-85 522.5,-91 522.5,-91 522.5,-94 519.5,-97 516.5,-97"/>
<text text-anchor="start" x="450.5" y="-85.8" font-family="Helvetica,sans-Serif" font-size="9.00">createWorld.js</text>
</a>
</g>
</g>
<!-- src/components/App.js&#45;&gt;src/helpers/createWorld.js -->
<g id="edge1" class="edge">
<title>src/components/App.js&#45;&gt;src/helpers/createWorld.js</title>
<path fill="none" stroke="#000000" stroke-width="2" stroke-opacity="0.200000" d="M136.5,-123.76C146.05,-113.15 162.88,-95.7 180,-84 232.69,-47.98 247.71,-36.89 310,-23 357.72,-12.36 375.1,-3.67 420,-23 443.64,-33.18 462.44,-57.4 472.76,-73.23"/>
<polygon fill="#000000" fill-opacity="0.200000" stroke="#000000" stroke-width="2" stroke-opacity="0.200000" points="471.2,-74.69 476.17,-78.64 474.75,-72.45 471.2,-74.69"/>
</g>
<!-- src/components/controls/index.js -->
<g id="node5" class="node">
<title>src/components/controls/index.js</title>
<g id="a_node5"><a xlink:href="src/components/controls/index.js" xlink:title="index.js">
<path fill="#ffffcc" stroke="black" d="M262,-142C262,-142 220,-142 220,-142 217,-142 214,-139 214,-136 214,-136 214,-130 214,-130 214,-127 217,-124 220,-124 220,-124 262,-124 262,-124 265,-124 268,-127 268,-130 268,-130 268,-136 268,-136 268,-139 265,-142 262,-142"/>
<text text-anchor="start" x="223.5" y="-130.8" font-family="Helvetica,sans-Serif" font-size="9.00">index.js</text>
</a>
</g>
</g>
<!-- src/components/App.js&#45;&gt;src/components/controls/index.js -->
<g id="edge3" class="edge">
<title>src/components/App.js&#45;&gt;src/components/controls/index.js</title>
<path fill="none" stroke="#000000" stroke-width="2" stroke-opacity="0.200000" d="M154.64,-133C170.46,-133 190.77,-133 207.6,-133"/>
<polygon fill="#000000" fill-opacity="0.200000" stroke="#000000" stroke-width="2" stroke-opacity="0.200000" points="207.64,-135.1 213.64,-133 207.64,-130.9 207.64,-135.1"/>
</g>
<!-- src/components/world/index.js -->
<g id="node6" class="node">
<title>src/components/world/index.js</title>
<g id="a_node6"><a xlink:href="src/components/world/index.js" xlink:title="index.js">
<path fill="#ffffcc" stroke="black" d="M262,-202C262,-202 220,-202 220,-202 217,-202 214,-199 214,-196 214,-196 214,-190 214,-190 214,-187 217,-184 220,-184 220,-184 262,-184 262,-184 265,-184 268,-187 268,-190 268,-190 268,-196 268,-196 268,-199 265,-202 262,-202"/>
<text text-anchor="start" x="223.5" y="-190.8" font-family="Helvetica,sans-Serif" font-size="9.00">index.js</text>
</a>
</g>
</g>
<!-- src/components/App.js&#45;&gt;src/components/world/index.js -->
<g id="edge4" class="edge">
<title>src/components/App.js&#45;&gt;src/components/world/index.js</title>
<path fill="none" stroke="#000000" stroke-width="2" stroke-opacity="0.200000" d="M154.62,-136.44C160.97,-138.37 167.27,-141.36 172,-146 180.33,-154.17 171.92,-162.58 180,-171 187.45,-178.76 197.86,-183.8 207.93,-187.07"/>
<polygon fill="#000000" fill-opacity="0.200000" stroke="#000000" stroke-width="2" stroke-opacity="0.200000" points="207.44,-189.11 213.79,-188.79 208.62,-185.08 207.44,-189.11"/>
</g>
<!-- src/components/_layout/VRButton.js -->
<g id="node12" class="node">
<title>src/components/_layout/VRButton.js</title>
<g id="a_node12"><a xlink:href="src/components/_layout/VRButton.js" xlink:title="VRButton.js">
<path fill="#ffffcc" stroke="black" d="M389.5,-52C389.5,-52 332.5,-52 332.5,-52 329.5,-52 326.5,-49 326.5,-46 326.5,-46 326.5,-40 326.5,-40 326.5,-37 329.5,-34 332.5,-34 332.5,-34 389.5,-34 389.5,-34 392.5,-34 395.5,-37 395.5,-40 395.5,-40 395.5,-46 395.5,-46 395.5,-49 392.5,-52 389.5,-52"/>
<text text-anchor="start" x="334.5" y="-40.8" font-family="Helvetica,sans-Serif" font-size="9.00">VRButton.js</text>
</a>
</g>
</g>
<!-- src/helpers/createWorld.js&#45;&gt;src/components/_layout/VRButton.js -->
<g id="edge18" class="edge">
<title>src/helpers/createWorld.js&#45;&gt;src/components/_layout/VRButton.js</title>
<path fill="none" stroke="#000000" stroke-width="2" stroke-opacity="0.200000" d="M465.19,-78.92C453.02,-72.43 435.83,-63.84 420,-58 414.22,-55.87 408.01,-53.92 401.87,-52.18"/>
<polygon fill="#000000" fill-opacity="0.200000" stroke="#000000" stroke-width="2" stroke-opacity="0.200000" points="402.13,-50.07 395.78,-50.52 401.02,-54.12 402.13,-50.07"/>
</g>
<!-- src/helpers/CalculateDeltaPosition.js -->
<g id="node15" class="node">
<title>src/helpers/CalculateDeltaPosition.js</title>
<g id="a_node15"><a xlink:href="src/helpers/CalculateDeltaPosition.js" xlink:title="CalculateDeltaPosition.js">
<path fill="#ffffcc" stroke="black" d="M661,-111C661,-111 548,-111 548,-111 545,-111 542,-108 542,-105 542,-105 542,-99 542,-99 542,-96 545,-93 548,-93 548,-93 661,-93 661,-93 664,-93 667,-96 667,-99 667,-99 667,-105 667,-105 667,-108 664,-111 661,-111"/>
<text text-anchor="start" x="550" y="-99.8" font-family="Helvetica,sans-Serif" font-size="9.00">CalculateDeltaPosition.js</text>
</a>
</g>
</g>
<!-- src/helpers/createWorld.js&#45;&gt;src/helpers/CalculateDeltaPosition.js -->
<g id="edge19" class="edge">
<title>src/helpers/createWorld.js&#45;&gt;src/helpers/CalculateDeltaPosition.js</title>
<path fill="none" stroke="#000000" stroke-width="2" stroke-opacity="0.200000" d="M522.79,-92.58C527.02,-93.08 531.41,-93.59 535.85,-94.11"/>
<polygon fill="#000000" fill-opacity="0.200000" stroke="#000000" stroke-width="2" stroke-opacity="0.200000" points="535.73,-96.21 541.93,-94.82 536.22,-92.04 535.73,-96.21"/>
</g>
<!-- src/helpers/ThemeliodiProblimata.js -->
<g id="node17" class="node">
<title>src/helpers/ThemeliodiProblimata.js</title>
<g id="a_node17"><a xlink:href="src/helpers/ThemeliodiProblimata.js" xlink:title="ThemeliodiProblimata.js">
<path fill="#ffffcc" stroke="black" d="M883,-111C883,-111 772,-111 772,-111 769,-111 766,-108 766,-105 766,-105 766,-99 766,-99 766,-96 769,-93 772,-93 772,-93 883,-93 883,-93 886,-93 889,-96 889,-99 889,-99 889,-105 889,-105 889,-108 886,-111 883,-111"/>
<text text-anchor="start" x="774" y="-99.8" font-family="Helvetica,sans-Serif" font-size="9.00">ThemeliodiProblimata.js</text>
</a>
</g>
</g>
<!-- src/helpers/createWorld.js&#45;&gt;src/helpers/ThemeliodiProblimata.js -->
<g id="edge20" class="edge">
<title>src/helpers/createWorld.js&#45;&gt;src/helpers/ThemeliodiProblimata.js</title>
<path fill="none" stroke="#000000" stroke-width="2" stroke-opacity="0.200000" d="M522.9,-85.29C575.51,-82.26 671.53,-78.77 753,-87 762.98,-88.01 773.61,-89.77 783.59,-91.73"/>
<polygon fill="#000000" fill-opacity="0.200000" stroke="#000000" stroke-width="2" stroke-opacity="0.200000" points="783.41,-93.84 789.71,-92.98 784.25,-89.73 783.41,-93.84"/>
</g>
<!-- src/components/_layout/ActionButton.js -->
<g id="node7" class="node">
<title>src/components/_layout/ActionButton.js</title>
<g id="a_node7"><a xlink:href="src/components/_layout/ActionButton.js" xlink:title="ActionButton.js">
<path fill="#ffffcc" stroke="black" d="M398,-142C398,-142 324,-142 324,-142 321,-142 318,-139 318,-136 318,-136 318,-130 318,-130 318,-127 321,-124 324,-124 324,-124 398,-124 398,-124 401,-124 404,-127 404,-130 404,-130 404,-136 404,-136 404,-139 401,-142 398,-142"/>
<text text-anchor="start" x="326" y="-130.8" font-family="Helvetica,sans-Serif" font-size="9.00">ActionButton.js</text>
</a>
</g>
</g>
<!-- src/components/controls/index.js&#45;&gt;src/components/_layout/ActionButton.js -->
<g id="edge7" class="edge">
<title>src/components/controls/index.js&#45;&gt;src/components/_layout/ActionButton.js</title>
<path fill="none" stroke="#000000" stroke-width="2" stroke-opacity="0.200000" d="M268.19,-133C280.9,-133 296.6,-133 311.39,-133"/>
<polygon fill="#000000" fill-opacity="0.200000" stroke="#000000" stroke-width="2" stroke-opacity="0.200000" points="311.66,-135.1 317.66,-133 311.66,-130.9 311.66,-135.1"/>
</g>
<!-- src/components/_layout/Modal.js -->
<g id="node8" class="node">
<title>src/components/_layout/Modal.js</title>
<g id="a_node8"><a xlink:href="src/components/_layout/Modal.js" xlink:title="Modal.js">
<path fill="#ffffcc" stroke="black" d="M382,-112C382,-112 340,-112 340,-112 337,-112 334,-109 334,-106 334,-106 334,-100 334,-100 334,-97 337,-94 340,-94 340,-94 382,-94 382,-94 385,-94 388,-97 388,-100 388,-100 388,-106 388,-106 388,-109 385,-112 382,-112"/>
<text text-anchor="start" x="342.5" y="-100.8" font-family="Helvetica,sans-Serif" font-size="9.00">Modal.js</text>
</a>
</g>
</g>
<!-- src/components/controls/index.js&#45;&gt;src/components/_layout/Modal.js -->
<g id="edge8" class="edge">
<title>src/components/controls/index.js&#45;&gt;src/components/_layout/Modal.js</title>
<path fill="none" stroke="#000000" stroke-width="2" stroke-opacity="0.200000" d="M268.08,-127.77C278.65,-125.55 290.95,-122.81 302,-120 310.35,-117.88 319.3,-115.37 327.62,-112.94"/>
<polygon fill="#000000" fill-opacity="0.200000" stroke="#000000" stroke-width="2" stroke-opacity="0.200000" points="328.68,-114.81 333.84,-111.1 327.49,-110.79 328.68,-114.81"/>
</g>
<!-- src/components/_layout/QRModal.js -->
<g id="node9" class="node">
<title>src/components/_layout/QRModal.js</title>
<g id="a_node9"><a xlink:href="src/components/_layout/QRModal.js" xlink:title="QRModal.js">
<path fill="#ffffcc" stroke="black" d="M387.5,-82C387.5,-82 334.5,-82 334.5,-82 331.5,-82 328.5,-79 328.5,-76 328.5,-76 328.5,-70 328.5,-70 328.5,-67 331.5,-64 334.5,-64 334.5,-64 387.5,-64 387.5,-64 390.5,-64 393.5,-67 393.5,-70 393.5,-70 393.5,-76 393.5,-76 393.5,-79 390.5,-82 387.5,-82"/>
<text text-anchor="start" x="336.5" y="-70.8" font-family="Helvetica,sans-Serif" font-size="9.00">QRModal.js</text>
</a>
</g>
</g>
<!-- src/components/controls/index.js&#45;&gt;src/components/_layout/QRModal.js -->
<g id="edge9" class="edge">
<title>src/components/controls/index.js&#45;&gt;src/components/_layout/QRModal.js</title>
<path fill="none" stroke="#000000" stroke-width="2" stroke-opacity="0.200000" d="M268.24,-133.31C279.97,-132.08 293.12,-128.6 302,-120 312.53,-109.8 299.88,-98.6 310,-88 313.55,-84.28 317.99,-81.47 322.74,-79.35"/>
<polygon fill="#000000" fill-opacity="0.200000" stroke="#000000" stroke-width="2" stroke-opacity="0.200000" points="323.58,-81.28 328.44,-77.17 322.08,-77.36 323.58,-81.28"/>
</g>
<!-- src/components/_layout/SideBar.js -->
<g id="node11" class="node">
<title>src/components/_layout/SideBar.js</title>
<g id="a_node11"><a xlink:href="src/components/_layout/SideBar.js" xlink:title="SideBar.js">
<path fill="#ffffcc" stroke="black" d="M385,-202C385,-202 337,-202 337,-202 334,-202 331,-199 331,-196 331,-196 331,-190 331,-190 331,-187 334,-184 337,-184 337,-184 385,-184 385,-184 388,-184 391,-187 391,-190 391,-190 391,-196 391,-196 391,-199 388,-202 385,-202"/>
<text text-anchor="start" x="339" y="-190.8" font-family="Helvetica,sans-Serif" font-size="9.00">SideBar.js</text>
</a>
</g>
</g>
<!-- src/components/controls/index.js&#45;&gt;src/components/_layout/SideBar.js -->
<g id="edge10" class="edge">
<title>src/components/controls/index.js&#45;&gt;src/components/_layout/SideBar.js</title>
<path fill="none" stroke="#000000" stroke-width="2" stroke-opacity="0.200000" d="M255.66,-142.19C274.67,-154.95 307.12,-176.65 310,-178 314.72,-180.21 319.84,-182.18 324.95,-183.92"/>
<polygon fill="#000000" fill-opacity="0.200000" stroke="#000000" stroke-width="2" stroke-opacity="0.200000" points="324.55,-186 330.91,-185.84 325.84,-182 324.55,-186"/>
</g>
<!-- src/components/_layout/WorldItem.js -->
<g id="node13" class="node">
<title>src/components/_layout/WorldItem.js</title>
<g id="a_node13"><a xlink:href="src/components/_layout/WorldItem.js" xlink:title="WorldItem.js">
<path fill="#ffffcc" stroke="black" d="M391.5,-172C391.5,-172 330.5,-172 330.5,-172 327.5,-172 324.5,-169 324.5,-166 324.5,-166 324.5,-160 324.5,-160 324.5,-157 327.5,-154 330.5,-154 330.5,-154 391.5,-154 391.5,-154 394.5,-154 397.5,-157 397.5,-160 397.5,-160 397.5,-166 397.5,-166 397.5,-169 394.5,-172 391.5,-172"/>
<text text-anchor="start" x="332.5" y="-160.8" font-family="Helvetica,sans-Serif" font-size="9.00">WorldItem.js</text>
</a>
</g>
</g>
<!-- src/components/controls/index.js&#45;&gt;src/components/_layout/WorldItem.js -->
<g id="edge11" class="edge">
<title>src/components/controls/index.js&#45;&gt;src/components/_layout/WorldItem.js</title>
<path fill="none" stroke="#000000" stroke-width="2" stroke-opacity="0.200000" d="M268.19,-139.66C282.94,-143.41 301.71,-148.18 318.43,-152.43"/>
<polygon fill="#000000" fill-opacity="0.200000" stroke="#000000" stroke-width="2" stroke-opacity="0.200000" points="318.15,-154.53 324.49,-153.97 319.19,-150.46 318.15,-154.53"/>
</g>
<!-- src/helpers/listeners.js -->
<g id="node14" class="node">
<title>src/helpers/listeners.js</title>
<g id="a_node14"><a xlink:href="src/helpers/listeners.js" xlink:title="listeners.js">
<path fill="#ffffcc" stroke="black" d="M508.5,-157C508.5,-157 456.5,-157 456.5,-157 453.5,-157 450.5,-154 450.5,-151 450.5,-151 450.5,-145 450.5,-145 450.5,-142 453.5,-139 456.5,-139 456.5,-139 508.5,-139 508.5,-139 511.5,-139 514.5,-142 514.5,-145 514.5,-145 514.5,-151 514.5,-151 514.5,-154 511.5,-157 508.5,-157"/>
<text text-anchor="start" x="458.5" y="-145.8" font-family="Helvetica,sans-Serif" font-size="9.00">listeners.js</text>
</a>
</g>
</g>
<!-- src/components/controls/index.js&#45;&gt;src/helpers/listeners.js -->
<g id="edge12" class="edge">
<title>src/components/controls/index.js&#45;&gt;src/helpers/listeners.js</title>
<path fill="none" stroke="#000000" stroke-width="2" stroke-opacity="0.200000" d="M264.12,-142.06C277.31,-148.65 293.16,-158.89 302,-173 315.82,-195.05 290.38,-213.9 310,-231 346.86,-263.12 376.34,-252.99 420,-231 448.31,-216.74 466.84,-182.62 475.6,-162.85"/>
<polygon fill="#000000" fill-opacity="0.200000" stroke="#000000" stroke-width="2" stroke-opacity="0.200000" points="477.58,-163.56 478.01,-157.21 473.72,-161.91 477.58,-163.56"/>
</g>
<!-- src/components/world/index.js&#45;&gt;src/actions/index.js -->
<g id="edge13" class="edge">
<title>src/components/world/index.js&#45;&gt;src/actions/index.js</title>
<path fill="none" stroke="#000000" stroke-width="2" stroke-opacity="0.200000" d="M251.66,-202.33C272.5,-222.47 321.8,-270.09 346.04,-293.51"/>
<polygon fill="#000000" fill-opacity="0.200000" stroke="#000000" stroke-width="2" stroke-opacity="0.200000" points="344.77,-295.2 350.54,-297.86 347.68,-292.18 344.77,-295.2"/>
</g>
<!-- src/components/world/index.js&#45;&gt;src/helpers/createWorld.js -->
<g id="edge14" class="edge">
<title>src/components/world/index.js&#45;&gt;src/helpers/createWorld.js</title>
<path fill="none" stroke="#000000" stroke-width="2" stroke-opacity="0.200000" d="M254.76,-202.2C287.05,-224.3 372.79,-275.35 420,-231 440.77,-211.49 410.08,-125.16 428,-103 430.47,-99.95 433.5,-97.49 436.86,-95.51"/>
<polygon fill="#000000" fill-opacity="0.200000" stroke="#000000" stroke-width="2" stroke-opacity="0.200000" points="437.93,-97.32 442.37,-92.77 436.06,-93.56 437.93,-97.32"/>
</g>
<!-- src/helpers/readWorldData.js -->
<g id="node10" class="node">
<title>src/helpers/readWorldData.js</title>
<g id="a_node10"><a xlink:href="src/helpers/readWorldData.js" xlink:title="readWorldData.js">
<path fill="#ffffcc" stroke="black" d="M523,-127C523,-127 442,-127 442,-127 439,-127 436,-124 436,-121 436,-121 436,-115 436,-115 436,-112 439,-109 442,-109 442,-109 523,-109 523,-109 526,-109 529,-112 529,-115 529,-115 529,-121 529,-121 529,-124 526,-127 523,-127"/>
<text text-anchor="start" x="444" y="-115.8" font-family="Helvetica,sans-Serif" font-size="9.00">readWorldData.js</text>
</a>
</g>
</g>
<!-- src/components/_layout/QRModal.js&#45;&gt;src/helpers/readWorldData.js -->
<g id="edge5" class="edge">
<title>src/components/_layout/QRModal.js&#45;&gt;src/helpers/readWorldData.js</title>
<path fill="none" stroke="#000000" stroke-width="2" stroke-opacity="0.200000" d="M393.66,-76.29C402.88,-78.48 412.48,-82.08 420,-88 425.94,-92.67 422.11,-98.27 428,-103 429.25,-104 430.56,-104.94 431.93,-105.82"/>
<polygon fill="#000000" fill-opacity="0.200000" stroke="#000000" stroke-width="2" stroke-opacity="0.200000" points="431.14,-107.78 437.4,-108.89 433.2,-104.12 431.14,-107.78"/>
</g>
<!-- src/helpers/loaders.js -->
<g id="node18" class="node">
<title>src/helpers/loaders.js</title>
<g id="a_node18"><a xlink:href="src/helpers/loaders.js" xlink:title="loaders.js">
<path fill="#ffffcc" stroke="black" d="M628,-141C628,-141 581,-141 581,-141 578,-141 575,-138 575,-135 575,-135 575,-129 575,-129 575,-126 578,-123 581,-123 581,-123 628,-123 628,-123 631,-123 634,-126 634,-129 634,-129 634,-135 634,-135 634,-138 631,-141 628,-141"/>
<text text-anchor="start" x="583" y="-129.8" font-family="Helvetica,sans-Serif" font-size="9.00">loaders.js</text>
</a>
</g>
</g>
<!-- src/helpers/readWorldData.js&#45;&gt;src/helpers/loaders.js -->
<g id="edge21" class="edge">
<title>src/helpers/readWorldData.js&#45;&gt;src/helpers/loaders.js</title>
<path fill="none" stroke="#000000" stroke-width="2" stroke-opacity="0.200000" d="M529.21,-123.33C542.29,-124.86 556.34,-126.5 568.66,-127.94"/>
<polygon fill="#000000" fill-opacity="0.200000" stroke="#000000" stroke-width="2" stroke-opacity="0.200000" points="568.73,-130.06 574.93,-128.67 569.22,-125.89 568.73,-130.06"/>
</g>
<!-- src/components/_layout/WorldItem.js&#45;&gt;src/helpers/readWorldData.js -->
<g id="edge6" class="edge">
<title>src/components/_layout/WorldItem.js&#45;&gt;src/helpers/readWorldData.js</title>
<path fill="none" stroke="#000000" stroke-width="2" stroke-opacity="0.200000" d="M397.58,-158.69C405.55,-156.46 413.54,-153.08 420,-148 425.94,-143.33 422.11,-137.73 428,-133 429.25,-132 430.56,-131.06 431.93,-130.18"/>
<polygon fill="#000000" fill-opacity="0.200000" stroke="#000000" stroke-width="2" stroke-opacity="0.200000" points="433.2,-131.88 437.4,-127.11 431.14,-128.22 433.2,-131.88"/>
</g>
<!-- src/helpers/computeZ.js -->
<g id="node16" class="node">
<title>src/helpers/computeZ.js</title>
<g id="a_node16"><a xlink:href="src/helpers/computeZ.js" xlink:title="computeZ.js">
<path fill="#ffffcc" stroke="black" d="M747,-111C747,-111 686,-111 686,-111 683,-111 680,-108 680,-105 680,-105 680,-99 680,-99 680,-96 683,-93 686,-93 686,-93 747,-93 747,-93 750,-93 753,-96 753,-99 753,-99 753,-105 753,-105 753,-108 750,-111 747,-111"/>
<text text-anchor="start" x="688" y="-99.8" font-family="Helvetica,sans-Serif" font-size="9.00">computeZ.js</text>
</a>
</g>
</g>
<!-- src/helpers/CalculateDeltaPosition.js&#45;&gt;src/helpers/computeZ.js -->
<g id="edge15" class="edge">
<title>src/helpers/CalculateDeltaPosition.js&#45;&gt;src/helpers/computeZ.js</title>
<path fill="none" stroke="#000000" stroke-width="2" stroke-opacity="0.200000" d="M667.25,-102C669.41,-102 671.55,-102 673.66,-102"/>
<polygon fill="#000000" fill-opacity="0.200000" stroke="#000000" stroke-width="2" stroke-opacity="0.200000" points="673.9,-104.1 679.9,-102 673.9,-99.9 673.9,-104.1"/>
</g>
<!-- src/helpers/CalculateDeltaPosition.js&#45;&gt;src/helpers/ThemeliodiProblimata.js -->
<g id="edge16" class="edge">
<title>src/helpers/CalculateDeltaPosition.js&#45;&gt;src/helpers/ThemeliodiProblimata.js</title>
<path fill="none" stroke="#000000" stroke-width="2" stroke-opacity="0.200000" d="M642.8,-111.02C654.62,-113.47 667.79,-115.78 680,-117 712.28,-120.22 720.72,-120.26 753,-117 762.98,-115.99 773.61,-114.23 783.59,-112.27"/>
<polygon fill="#000000" fill-opacity="0.200000" stroke="#000000" stroke-width="2" stroke-opacity="0.200000" points="784.25,-114.27 789.71,-111.02 783.41,-110.16 784.25,-114.27"/>
</g>
<!-- src/helpers/computeZ.js&#45;&gt;src/helpers/ThemeliodiProblimata.js -->
<g id="edge17" class="edge">
<title>src/helpers/computeZ.js&#45;&gt;src/helpers/ThemeliodiProblimata.js</title>
<path fill="none" stroke="#000000" stroke-width="2" stroke-opacity="0.200000" d="M753.19,-102C755.37,-102 757.59,-102 759.84,-102"/>
<polygon fill="#000000" fill-opacity="0.200000" stroke="#000000" stroke-width="2" stroke-opacity="0.200000" points="759.86,-104.1 765.86,-102 759.86,-99.9 759.86,-104.1"/>
</g>
<!-- src/index.css -->
<g id="node19" class="node">
<title>src/index.css</title>
<g id="a_node19"><a xlink:href="src/index.css" xlink:title="index.css">
<path fill="#ffffcc" stroke="black" d="M151,-280C151,-280 104,-280 104,-280 101,-280 98,-277 98,-274 98,-274 98,-268 98,-268 98,-265 101,-262 104,-262 104,-262 151,-262 151,-262 154,-262 157,-265 157,-268 157,-268 157,-274 157,-274 157,-277 154,-280 151,-280"/>
<text text-anchor="start" x="106" y="-268.8" font-family="Helvetica,sans-Serif" font-size="9.00">index.css</text>
</a>
</g>
</g>
<!-- src/index.js -->
<g id="node20" class="node">
<title>src/index.js</title>
<g id="a_node20"><a xlink:href="src/index.js" xlink:title="index.js">
<path fill="#ffffcc" stroke="black" d="M64,-295C64,-295 22,-295 22,-295 19,-295 16,-292 16,-289 16,-289 16,-283 16,-283 16,-280 19,-277 22,-277 22,-277 64,-277 64,-277 67,-277 70,-280 70,-283 70,-283 70,-289 70,-289 70,-292 67,-295 64,-295"/>
<text text-anchor="start" x="25.5" y="-283.8" font-family="Helvetica,sans-Serif" font-size="9.00">index.js</text>
</a>
</g>
</g>
<!-- src/index.js&#45;&gt;src/components/App.js -->
<g id="edge22" class="edge">
<title>src/index.js&#45;&gt;src/components/App.js</title>
<path fill="none" stroke="#000000" stroke-width="2" stroke-opacity="0.200000" d="M43.72,-276.67C43.5,-251.8 46.42,-183.27 83,-146 86.19,-142.75 90.15,-140.31 94.38,-138.47"/>
<polygon fill="#000000" fill-opacity="0.200000" stroke="#000000" stroke-width="2" stroke-opacity="0.200000" points="95.34,-140.35 100.26,-136.32 93.9,-136.41 95.34,-140.35"/>
</g>
<!-- src/index.js&#45;&gt;src/index.css -->
<g id="edge23" class="edge">
<title>src/index.js&#45;&gt;src/index.css</title>
<path fill="none" stroke="#000000" stroke-width="2" stroke-opacity="0.200000" d="M70.1,-281.25C77.04,-279.99 84.63,-278.61 91.94,-277.28"/>
<polygon fill="#000000" fill-opacity="0.200000" stroke="#000000" stroke-width="2" stroke-opacity="0.200000" points="92.47,-279.32 97.99,-276.18 91.71,-275.19 92.47,-279.32"/>
</g>
<!-- src/reducers/index.js -->
<g id="node21" class="node">
<title>src/reducers/index.js</title>
<g id="a_node21"><a xlink:href="src/reducers/index.js" xlink:title="index.js">
<path fill="#ffffcc" stroke="black" d="M148.5,-344C148.5,-344 106.5,-344 106.5,-344 103.5,-344 100.5,-341 100.5,-338 100.5,-338 100.5,-332 100.5,-332 100.5,-329 103.5,-326 106.5,-326 106.5,-326 148.5,-326 148.5,-326 151.5,-326 154.5,-329 154.5,-332 154.5,-332 154.5,-338 154.5,-338 154.5,-341 151.5,-344 148.5,-344"/>
<text text-anchor="start" x="110" y="-332.8" font-family="Helvetica,sans-Serif" font-size="9.00">index.js</text>
</a>
</g>
</g>
<!-- src/index.js&#45;&gt;src/reducers/index.js -->
<g id="edge24" class="edge">
<title>src/index.js&#45;&gt;src/reducers/index.js</title>
<path fill="none" stroke="#000000" stroke-width="2" stroke-opacity="0.200000" d="M51.77,-295.25C59.06,-303.37 70.67,-314.97 83,-322 86.59,-324.04 90.53,-325.8 94.53,-327.29"/>
<polygon fill="#000000" fill-opacity="0.200000" stroke="#000000" stroke-width="2" stroke-opacity="0.200000" points="94.04,-329.34 100.4,-329.3 95.4,-325.37 94.04,-329.34"/>
</g>
<!-- src/serviceWorker.js -->
<g id="node22" class="node">
<title>src/serviceWorker.js</title>
<g id="a_node22"><a xlink:href="src/serviceWorker.js" xlink:title="serviceWorker.js">
<path fill="#ffffcc" stroke="black" d="M166,-310C166,-310 89,-310 89,-310 86,-310 83,-307 83,-304 83,-304 83,-298 83,-298 83,-295 86,-292 89,-292 89,-292 166,-292 166,-292 169,-292 172,-295 172,-298 172,-298 172,-304 172,-304 172,-307 169,-310 166,-310"/>
<text text-anchor="start" x="91" y="-298.8" font-family="Helvetica,sans-Serif" font-size="9.00">serviceWorker.js</text>
</a>
</g>
</g>
<!-- src/index.js&#45;&gt;src/serviceWorker.js -->
<g id="edge25" class="edge">
<title>src/index.js&#45;&gt;src/serviceWorker.js</title>
<path fill="none" stroke="#000000" stroke-width="2" stroke-opacity="0.200000" d="M70.1,-290.75C72.26,-291.14 74.48,-291.54 76.74,-291.95"/>
<polygon fill="#000000" fill-opacity="0.200000" stroke="#000000" stroke-width="2" stroke-opacity="0.200000" points="76.49,-294.04 82.77,-293.05 77.25,-289.91 76.49,-294.04"/>
</g>
<!-- src/reducers/api.js -->
<g id="node23" class="node">
<title>src/reducers/api.js</title>
<g id="a_node23"><a xlink:href="src/reducers/api.js" xlink:title="api.js">
<path fill="#ffffcc" stroke="black" d="M262,-344C262,-344 220,-344 220,-344 217,-344 214,-341 214,-338 214,-338 214,-332 214,-332 214,-329 217,-326 220,-326 220,-326 262,-326 262,-326 265,-326 268,-329 268,-332 268,-332 268,-338 268,-338 268,-341 265,-344 262,-344"/>
<text text-anchor="start" x="229" y="-332.8" font-family="Helvetica,sans-Serif" font-size="9.00">api.js</text>
</a>
</g>
</g>
<!-- src/reducers/index.js&#45;&gt;src/reducers/api.js -->
<g id="edge30" class="edge">
<title>src/reducers/index.js&#45;&gt;src/reducers/api.js</title>
<path fill="none" stroke="#000000" stroke-width="2" stroke-opacity="0.200000" d="M154.64,-335C170.46,-335 190.77,-335 207.6,-335"/>
<polygon fill="#000000" fill-opacity="0.200000" stroke="#000000" stroke-width="2" stroke-opacity="0.200000" points="207.64,-337.1 213.64,-335 207.64,-332.9 207.64,-337.1"/>
</g>
<!-- src/testFiles/worldMixedReality.js -->
<g id="node24" class="node">
<title>src/testFiles/worldMixedReality.js</title>
<g id="a_node24"><a xlink:href="src/testFiles/worldMixedReality.js" xlink:title="worldMixedReality.js">
<path fill="#ffffcc" stroke="black" d="M288,-464C288,-464 194,-464 194,-464 191,-464 188,-461 188,-458 188,-458 188,-452 188,-452 188,-449 191,-446 194,-446 194,-446 288,-446 288,-446 291,-446 294,-449 294,-452 294,-452 294,-458 294,-458 294,-461 291,-464 288,-464"/>
<text text-anchor="start" x="196" y="-452.8" font-family="Helvetica,sans-Serif" font-size="9.00">worldMixedReality.js</text>
</a>
</g>
</g>
<!-- src/reducers/index.js&#45;&gt;src/testFiles/worldMixedReality.js -->
<g id="edge27" class="edge">
<title>src/reducers/index.js&#45;&gt;src/testFiles/worldMixedReality.js</title>
<path fill="none" stroke="#000000" stroke-width="2" stroke-opacity="0.200000" d="M130.28,-344.21C134.75,-364.74 148.42,-414.47 180,-440 181.24,-441 182.54,-441.94 183.89,-442.82"/>
<polygon fill="#000000" fill-opacity="0.200000" stroke="#000000" stroke-width="2" stroke-opacity="0.200000" points="183.05,-444.75 189.3,-445.9 185.13,-441.11 183.05,-444.75"/>
</g>
<!-- src/testFiles/worldOne.js -->
<g id="node25" class="node">
<title>src/testFiles/worldOne.js</title>
<g id="a_node25"><a xlink:href="src/testFiles/worldOne.js" xlink:title="worldOne.js">
<path fill="#ffffcc" stroke="black" d="M269.5,-434C269.5,-434 212.5,-434 212.5,-434 209.5,-434 206.5,-431 206.5,-428 206.5,-428 206.5,-422 206.5,-422 206.5,-419 209.5,-416 212.5,-416 212.5,-416 269.5,-416 269.5,-416 272.5,-416 275.5,-419 275.5,-422 275.5,-422 275.5,-428 275.5,-428 275.5,-431 272.5,-434 269.5,-434"/>
<text text-anchor="start" x="214.5" y="-422.8" font-family="Helvetica,sans-Serif" font-size="9.00">worldOne.js</text>
</a>
</g>
</g>
<!-- src/reducers/index.js&#45;&gt;src/testFiles/worldOne.js -->
<g id="edge28" class="edge">
<title>src/reducers/index.js&#45;&gt;src/testFiles/worldOne.js</title>
<path fill="none" stroke="#000000" stroke-width="2" stroke-opacity="0.200000" d="M132.2,-344.22C139.1,-360.21 155.48,-392.97 180,-410 186.06,-414.21 193.2,-417.24 200.39,-419.42"/>
<polygon fill="#000000" fill-opacity="0.200000" stroke="#000000" stroke-width="2" stroke-opacity="0.200000" points="200.08,-421.52 206.42,-421.06 201.18,-417.46 200.08,-421.52"/>
</g>
<!-- src/testFiles/worldTwo.js -->
<g id="node26" class="node">
<title>src/testFiles/worldTwo.js</title>
<g id="a_node26"><a xlink:href="src/testFiles/worldTwo.js" xlink:title="worldTwo.js">
<path fill="#ffffcc" stroke="black" d="M269,-404C269,-404 213,-404 213,-404 210,-404 207,-401 207,-398 207,-398 207,-392 207,-392 207,-389 210,-386 213,-386 213,-386 269,-386 269,-386 272,-386 275,-389 275,-392 275,-392 275,-398 275,-398 275,-401 272,-404 269,-404"/>
<text text-anchor="start" x="215" y="-392.8" font-family="Helvetica,sans-Serif" font-size="9.00">worldTwo.js</text>
</a>
</g>
</g>
<!-- src/reducers/index.js&#45;&gt;src/testFiles/worldTwo.js -->
<g id="edge29" class="edge">
<title>src/reducers/index.js&#45;&gt;src/testFiles/worldTwo.js</title>
<path fill="none" stroke="#000000" stroke-width="2" stroke-opacity="0.200000" d="M138.95,-344.11C148.95,-352.47 164.73,-364.79 180,-373 187.7,-377.14 196.35,-380.82 204.63,-383.93"/>
<polygon fill="#000000" fill-opacity="0.200000" stroke="#000000" stroke-width="2" stroke-opacity="0.200000" points="203.93,-385.91 210.28,-385.98 205.36,-381.96 203.93,-385.91"/>
</g>
<!-- src/reducers/api.js&#45;&gt;src/actions/index.js -->
<g id="edge26" class="edge">
<title>src/reducers/api.js&#45;&gt;src/actions/index.js</title>
<path fill="none" stroke="#000000" stroke-width="2" stroke-opacity="0.200000" d="M268.19,-328.79C285.76,-324.62 309.02,-319.1 327.73,-314.66"/>
<polygon fill="#000000" fill-opacity="0.200000" stroke="#000000" stroke-width="2" stroke-opacity="0.200000" points="328.53,-316.63 333.89,-313.2 327.56,-312.54 328.53,-316.63"/>
</g>
</g>
</svg>
